<svg width="89" height="114" viewBox="0 0 89 114" fill="#FCAB10" xmlns="http://www.w3.org/2000/svg">
    <path d="M1.18835 28.8383C0.429832 29.595 0 30.6165 0 31.6885V109.464C0 111.697 1.80782 113.5 4.04546 113.5H84.9545C87.1922 113.5 89 111.697 89 109.464V4.53571C89 2.30346 87.1922 0.5 84.9545 0.5H31.2638C30.1892 0.5 29.1526 0.928795 28.394 1.68549L1.18835 28.8383ZM9.32983 33.5424L33.1222 9.80737V33.5424H9.32983ZM29.1753 72.7973C31.0944 72.7342 33.1348 72.8818 35.4521 73.1706C38.5241 71.2801 40.5923 68.6834 42.0614 64.8684L41.9261 64.316L41.7693 63.6627C41.2257 61.3762 40.9337 59.7077 40.8464 58.0253C40.7807 56.7553 40.8515 55.5837 41.0778 54.4979C41.495 52.1534 43.1574 50.7825 45.2522 50.698C47.2054 50.6185 49.0006 51.7069 49.4595 53.3931C50.2066 56.1197 49.7692 59.7077 48.1852 65.8269C50.2028 70.6256 52.869 76.2516 54.6579 79.3894C57.046 80.6178 58.9056 81.7351 60.4682 82.9736C62.5288 84.6093 63.8158 86.2905 64.1698 88.0561C64.3417 88.8746 64.0825 89.944 63.4921 90.8205C62.8221 91.8143 61.8133 92.4601 60.6034 92.5534C57.5504 92.7892 53.7982 89.6489 49.6554 82.5574C49.2395 82.4187 48.7996 82.2724 48.2623 82.0908L46.7579 81.5838C45.8059 81.2635 45.1157 81.0339 44.433 80.8132C41.4748 79.8522 39.2371 79.2456 37.2018 78.9001C33.6645 80.7893 29.5761 82.0277 26.8226 82.0277C24.5496 82.0277 23.0136 80.8523 22.4586 79.0022C21.9719 77.3778 22.3575 75.4937 23.4042 74.4519C24.4864 73.3913 26.4762 72.8843 29.1753 72.7973ZM60.5263 88.9931V88.9477L60.5099 88.9048C60.3248 88.4278 60.0874 87.9727 59.8019 87.5478C59.2609 86.718 58.5162 85.8453 57.5934 84.9158C57.0978 84.4176 56.582 83.9321 55.9764 83.3873C55.8412 83.2662 54.9765 82.4981 54.8146 82.3468L53.4025 81.0352L54.4291 82.6659C55.9866 85.1428 57.3949 86.9261 58.6009 88.0889C59.0447 88.5177 59.4353 88.833 59.7514 89.036C59.8557 89.1055 59.9661 89.1655 60.0813 89.2151C60.1332 89.2365 60.1787 89.2491 60.2242 89.2529C60.2722 89.259 60.321 89.2525 60.3658 89.234C60.4134 89.2141 60.454 89.1806 60.4825 89.1378C60.5111 89.0949 60.5263 89.0446 60.5263 88.9931ZM44.6049 61.4645L44.8906 61.969L45.0676 61.4166C45.4595 60.1769 45.7478 58.3091 45.8274 56.6242C45.9184 54.7072 45.7655 53.557 45.1586 53.557C44.3066 53.557 43.9159 54.9191 43.8856 56.9685C43.8578 58.7694 44.1422 60.6435 44.6062 61.4645H44.6049ZM45.3394 68.8372L45.146 68.3265L44.8818 68.8057C43.4039 71.4844 41.4861 73.7192 39.3774 75.2767L38.9223 75.6122L39.4773 75.7257C41.5418 76.152 43.4646 76.7927 46.0942 77.8508C45.8198 77.7398 48.8274 78.9682 49.5884 79.2595L50.2521 79.513L49.8982 78.8975C48.3369 76.186 46.8944 72.9297 45.3407 68.8372H45.3394ZM25.413 78.4549C26.4067 78.8458 28.5457 78.4965 32.3118 76.8923L33.2675 76.4862L32.2309 76.4105C29.2853 76.1923 27.1994 76.3538 25.9832 76.7977C25.4649 76.9869 25.1197 77.2252 24.9668 77.4976C24.8863 77.6266 24.8592 77.7817 24.8913 77.9303C24.9234 78.0788 25.0121 78.209 25.1387 78.2934C25.2191 78.3641 25.3122 78.4188 25.413 78.4549Z"
/>
</svg>
